<?xml version="1.0" encoding="UTF-8"?>
<svg id="a" data-name="Layer 2" xmlns="http://www.w3.org/2000/svg" viewBox="0 0 841.89 595.28">
  <g>
    <g id="b" data-name="Solar">
      <polygon points="447.66 132.64 528.42 132.64 571.54 95.18 490.78 95.18 447.66 132.64" style="fill: #2e3192;"/>
      <polygon points="393.34 179.26 474.11 179.26 517.23 141.8 436.46 141.8 393.34 179.26" style="fill: #2e3192;"/>
      <polygon points="340.58 225.87 421.35 225.87 464.47 188.41 383.7 188.41 340.58 225.87" style="fill: #2e3192;"/>
      <polygon points="231.79 133.47 320.29 133.47 367.54 96.02 279.04 96.02 231.79 133.47" style="fill: #2e3192;"/>
      <polygon points="176.09 179.26 264.59 179.26 311.84 141.8 223.34 141.8 176.09 179.26" style="fill: #2e3192;"/>
      <polygon points="119.16 226.7 207.66 226.7 254.91 189.25 166.41 189.25 119.16 226.7" style="fill: #2e3192;"/>
      <polygon points="340.86 133.47 426.84 133.47 472.74 96.02 386.76 96.02 340.86 133.47" style="fill: #2e3192;"/>
      <polygon points="286.41 179.26 372.39 179.26 418.29 141.8 332.31 141.8 286.41 179.26" style="fill: #2e3192;"/>
      <polygon points="228.35 225.04 314.33 225.04 360.23 187.58 274.25 187.58 228.35 225.04" style="fill: #2e3192;"/>
    </g>
    <g id="c" data-name="Sonne">
      <path d="m190.86,75.5c-20.73,6.3-21.97,12.3-5.1,26.08-21.34-2.87-24.58,2.04-13.91,21.3-18.66-11-23.42-7.66-20.64,14.36-13.36-17.41-19.17-16.13-25.27,5.27-6.1-21.4-11.92-22.67-25.27-5.27,2.78-22.02-1.98-25.36-20.64-14.36,10.66-19.26,7.43-24.17-13.91-21.3,16.85-13.78,15.61-19.78-5.12-26.08,20.73-6.3,21.97-12.3,5.1-26.08,21.34,2.87,24.58-2.04,13.91-21.3,18.66,11,23.42,7.66,20.64-14.36,13.36,17.41,19.17,16.13,25.27-5.27,6.1,21.4,11.92,22.67,25.27,5.27-2.78,22.02,1.98,25.36,20.64,14.36-10.66,19.26-7.43,24.17,13.91,21.3-16.86,13.78-15.62,19.78,5.12,26.08Z" style="fill: #ffc60b;"/>
    </g>
    <g id="d" data-name="Fenster">
      <rect x="577.41" y="156.43" width="18.36" height="18.36" style="fill: #7989a3; stroke: #000; stroke-miterlimit: 10; stroke-width: .5px;"/>
      <rect x="577.41" y="177.35" width="18.36" height="18.36" style="fill: #7989a3; stroke: #000; stroke-miterlimit: 10; stroke-width: .5px;"/>
      <rect x="599.37" y="177.35" width="18.36" height="18.36" style="fill: #7989a3; stroke: #000; stroke-miterlimit: 10; stroke-width: .5px;"/>
      <rect x="599.37" y="156.43" width="18.36" height="18.36" style="fill: #7989a3; stroke: #000; stroke-miterlimit: 10; stroke-width: .5px;"/>
    </g>
    <polygon id="e" data-name="Dach" points="114.25 233.13 433.9 235.35 597.57 88.85 738 244.23 726.29 244.23 597.05 102.54 439.82 244.23 103.89 242 114.25 233.13" style="fill: #7989a3; stroke: #000; stroke-miterlimit: 10; stroke-width: .5px;"/>
  </g>
  <g id="f" data-name="Video">
    <path d="m38.47,587.05l5.49-14.62h3.47l-6.4,17.5c-1.56.2-2.89.24-4.35.24s-2.79-.05-4.33-.24l-6.4-17.5h3.46l5.51,14.62c.51.07,1.14.12,1.77.12s1.25-.05,1.78-.12Z"/>
    <path d="m52.59,590.03h-3.09v-15.4h3.09v15.4Z"/>
    <path d="m72.26,575.12c.78,2.44,1.1,4.77,1.1,7.21s-.32,4.77-1.1,7.21c-2.79.54-5.6.73-8.35.73-1.94,0-3.84-.07-8.26-.24v-15.4c4.2-.15,6.25-.24,8.28-.24,2.73,0,5.54.22,8.33.73Zm-2.94,12.12c.38-1.66.57-3.23.57-4.91s-.19-3.25-.59-4.91c-1.77-.22-3.38-.29-5.39-.29s-3.49.1-5.16.24v9.9c1.67.17,3.23.27,5.16.27,2.01,0,3.64-.08,5.41-.3Z"/>
    <path d="m88.28,583.36h-9v3.84c2.11.24,4.35.32,6.44.32s4.37-.07,6.4-.32v2.76c-2.58.22-5.03.32-7.56.32-2.77,0-5.62-.1-8.37-.32v-15.26c2.89-.22,5.89-.32,8.77-.32,2.37,0,4.69.1,7.12.32v2.76c-2.11-.24-4.63-.32-6.74-.32-1.99,0-4.08.07-6.06.29v3.86h9v2.07h0Z"/>
    <path d="m103.41,590.28c-2.87,0-5.75-.2-8.64-.59-.15-2.49-.25-4.86-.25-7.36s.1-4.84.25-7.36c2.89-.39,5.77-.59,8.64-.59s5.75.2,8.64.59c.15,2.52.23,4.86.23,7.36s-.08,4.86-.23,7.36c-2.89.39-5.77.59-8.64.59Zm-5.49-3.16c1.8.2,3.68.29,5.49.29s3.66-.1,5.47-.29c.11-1.64.19-3.15.19-4.79s-.08-3.15-.19-4.79c-1.8-.19-3.68-.29-5.47-.29s-3.68.1-5.49.29c-.11,1.64-.17,3.15-.17,4.79s.06,3.15.17,4.79Z"/>
    <path d="m115.65,589.54c-.29-3.96-.42-8.26-.42-12.2v-2.71h3.15v2.71c0,3.13.08,6.65.23,9.78,1.69.24,3.46.29,5.15.29s3.44-.05,5.11-.29c.17-3.13.25-6.65.25-9.78v-2.71h3.13v2.71c0,3.96-.29,8.24-.42,12.2-2.7.51-5.39.73-8.07.73-2.69.01-5.39-.22-8.11-.73Zm4.54-19.14c.42-.1.87-.15,1.29-.15s.87.05,1.31.15c.02.49.02.9.02,1.37s0,.88-.02,1.34c-.44.15-.89.15-1.31.15s-.87,0-1.29-.15c-.04-.46-.04-.86-.04-1.34s0-.88.04-1.37Zm4.44,0c.42-.1.87-.15,1.29-.15s.87.05,1.31.15c.02.49.02.9.02,1.37s0,.88-.02,1.34c-.44.15-.89.15-1.31.15s-.87,0-1.29-.15c-.04-.46-.04-.86-.04-1.34.01-.46.01-.88.04-1.37Z"/>
    <path d="m150.43,580.89l1.48.07c.29,1.54.42,3.03.42,4.55s-.1,2.98-.42,4.52c-2.75.15-5.64.24-8.35.24-1.9,0-4.41-.15-8.28-.24v-15.4c3.42-.07,5.85-.17,7.61-.17,2.32,0,4.8.03,7.2.17.32,1.39.49,2.66.49,4.01.01.76-.05,1.49-.15,2.25Zm-12.15-.17h5.03c.78,0,1.56,0,2.37.03l1.67-.07c.09-.68.15-1.32.15-2.03s-.06-1.22-.13-1.91c-1.42-.07-2.87-.07-4.5-.07s-3.13.07-4.59.15v3.9h0Zm0,7.09c1.69.12,3.38.2,5.28.2,2.03,0,3.85-.05,5.66-.15.1-.78.13-1.52.13-2.35,0-.78-.02-1.56-.13-2.35-1.9-.1-3.82-.1-5.92-.1h-5.01v4.75h-.01Z"/>
    <path d="m166.57,583.36h-9v3.84c2.11.24,4.35.32,6.44.32s4.37-.07,6.4-.32v2.76c-2.58.22-5.03.32-7.56.32-2.77,0-5.62-.1-8.37-.32v-15.26c2.89-.22,5.89-.32,8.77-.32,2.37,0,4.69.1,7.12.32v2.76c-2.11-.24-4.63-.32-6.74-.32-1.99,0-4.08.07-6.06.29v3.86h9v2.07Z"/>
    <path d="m180.64,582.55c1.99,0,3.8,0,5.54-.12.1-.9.15-1.78.15-2.69s-.04-1.59-.13-2.47c-1.71-.17-3.3-.27-5.18-.27-1.69,0-3.38.02-5.05.2l-.02,12.83h-3.08v-15.4c2.72-.2,5.45-.24,8.16-.24,2.49,0,5.58.05,8.13.66.19,1.49.34,2.88.34,4.38,0,1.74-.06,3.54-.34,5.38-1.44.1-3.02.15-4.59.2l5.07,5.04h-3.89l-5.09-4.99h-.02l-1.01-1-1.06-1.05v-.44h2.07v-.02Z"/>
    <path d="m202.94,577.42l-2.96,12.56c-.84.15-1.58.2-2.34.2-.95,0-1.86-.05-2.91-.2l-3.72-15.35h3.19l2.89,12.56s.21.07.34.07c.11,0,.28-.02.32-.07l2.89-12.44c.91-.15,1.69-.2,2.51-.2s1.61.05,2.54.2l2.87,12.44s.21.07.32.07c.13,0,.32-.02.36-.07l2.87-12.56h3.19l-3.72,15.35c-1.04.15-1.97.2-2.9.2-.74,0-1.48-.05-2.32-.2l-2.98-12.56c-.08-.02-.13-.02-.23-.02-.07,0-.13,0-.21.02Z"/>
    <path d="m229.03,574.7l5.75,15.33h-3.09l-1.35-3.5h-10.58l-1.35,3.5h-3.09l5.77-15.33c1.44-.15,2.62-.2,3.97-.2,1.33.01,2.52.06,3.97.2Zm-5.78,2.77l-2.45,6.36h8.49l-2.45-6.36c-.46-.07-1.23-.1-1.78-.1s-1.35.02-1.81.1Z"/>
    <path d="m250.04,587.12c.08-.88.13-1.61.15-2.47h3.19c-.02,1.66-.13,3.2-.3,4.89-2.77.51-5.51.73-8.24.73s-5.54-.22-8.32-.73c-.23-2.44-.34-4.74-.34-7.21s.11-4.77.34-7.21c2.77-.51,5.54-.73,8.32-.73s5.47.17,8.24.59c.17,1.74.28,3.32.32,5.01h-3.21c-.02-.83-.08-1.59-.15-2.45-1.67-.24-3.55-.29-5.2-.29s-3.61.05-5.3.29c-.11,1.64-.15,3.15-.15,4.79s.04,3.15.15,4.79c1.69.24,3.61.29,5.3.29,1.65.01,3.53-.04,5.2-.29Z"/>
    <path d="m259.44,580.64h11.14v-6.01h3.09v15.4h-3.09v-6.38h-11.14v6.38h-3.09v-15.4h3.09v6.01Z"/>
    <path d="m277.11,589.54c-.29-3.96-.42-8.26-.42-12.2v-2.71h3.15v2.71c0,3.13.08,6.65.23,9.78,1.69.24,3.46.29,5.15.29s3.44-.05,5.11-.29c.17-3.13.25-6.65.25-9.78v-2.71h3.13v2.71c0,3.96-.29,8.24-.42,12.2-2.7.51-5.39.73-8.07.73-2.7.01-5.39-.22-8.11-.73Z"/>
    <path d="m313.98,590.03h-3.1l-9.02-12.42c-.72-.05-1.31-.07-2.03-.07v12.49h-3.09v-15.4h.46c2.07,0,4.12.07,6.53.22l7.16,10.17v-10.39h3.1v15.4h-.01Z"/>
    <path d="m330.91,587.12c.13-.68.19-1.54.23-3.37h-3.87v-2.3h7.01c-.04,4.45-.19,6.53-.4,8.24-2.75.42-5.52.59-8.26.59s-5.52-.17-8.32-.59c-.21-2.49-.34-4.86-.34-7.36s.11-4.94.34-7.48c2.79-.34,5.54-.46,8.32-.46s5.68.05,8.52.39v2.76c-2.26-.19-4.92-.29-7.16-.29-2.09,0-4.67.02-6.76.27-.11,1.61-.17,3.18-.17,4.81s.06,3.15.19,4.79c1.67.24,3.68.29,5.37.29,1.66,0,3.65-.04,5.3-.29Z"/>
    <g>
      <ellipse cx="180.56" cy="531.57" rx="36.89" ry="36.46" style="fill: #7a89a3; stroke: #000; stroke-miterlimit: 10; stroke-width: .5px;"/>
      <path d="m154.44,527.21l4.16,9.94,4.09-2.3-3.71-8.86-4.54,1.22Zm40.03,14.46c.41,0,.82-.11,1.18-.31.56-.32.95-.85,1.09-1.47h0c.13-.58.03-1.17-.27-1.67s-.78-.87-1.34-1.04c-.64-.19-1.26-.4-1.87-.64v-2.79c0-.61.5-1.11,1.13-1.11h3.99v14.85h-3.99c-.62,0-1.12-.5-1.13-1.11v-4.96c.18.06.36.12.55.17.21.05.43.08.66.08h0Zm-35.4-20.52l31.34-12.83c.45-.18.97.03,1.16.47l1.71,4.07-5.87,2.4c-.14.05-.24.15-.3.28s-.06.28,0,.41c.06.13.16.24.3.29.13.05.28.05.42-.01l5.87-2.4.41.98-5.87,2.4c-.24.1-.37.34-.32.59.05.25.27.43.53.43.07,0,.14-.01.2-.04l5.87-2.4.41.98-5.87,2.4c-.24.1-.37.34-.32.59.05.25.27.43.53.43.07,0,.14-.01.2-.04l5.87-2.4.41.98-5.87,2.4c-.24.09-.37.34-.32.59.05.25.27.43.53.43.07,0,.14-.01.2-.04l5.87-2.4,1.71,4.07h0c.19.45-.03.96-.48,1.14l-12.75,5.22c-.87-1.06-1.66-2.18-2.37-3.35.96-1.23,1.32-2.82.96-4.33s-1.39-2.78-2.81-3.45-3.06-.68-4.48-.01-2.46,1.93-2.82,3.44c-.37,1.51-.02,3.1.94,4.33.96,1.23,2.43,1.96,4,2,.65,1.1,1.36,2.17,2.12,3.2l-14.13,5.78h0c-.45.18-.97-.03-1.16-.47l-6.28-14.99c-.21-.44,0-.95.46-1.14h0Zm17.9,2.42c.18-.46.62-.77,1.12-.79.5-.02.96.26,1.18.71,3.77,8.02,8.71,12.7,15.55,14.71.63.19,1.01.82.87,1.46h0c-.08.34-.29.62-.59.79-.3.18-.66.22-.99.12-3.73-1.06-7.15-3-9.95-5.66-2.76-2.61-5.1-6-7.15-10.38-.15-.3-.16-.65-.04-.96h0Zm.43,4.09h0c-1.16-.21-2.18-.91-2.79-1.91s-.75-2.21-.4-3.33c.36-1.11,1.18-2.02,2.26-2.5,1.08-.47,2.32-.47,3.39.02,1.07.49,1.89,1.41,2.23,2.53.34,1.12.18,2.33-.44,3.32-.49-.87-.96-1.79-1.42-2.75h0c-.35-.74-1.08-1.24-1.9-1.31-.83-.07-1.63.3-2.1.97s-.55,1.54-.2,2.28c.45.93.9,1.82,1.37,2.68h0Zm25.66,13.85c-.59,0-1.13-.35-1.36-.9-.23-.54-.1-1.17.32-1.58.42-.42,1.05-.54,1.6-.31.55.22.91.75.91,1.34,0,.8-.66,1.45-1.47,1.45h0Zm3.62-14.23h-7.24v25.55h7.24v-25.55Zm-1.08,12.78c0,.66-.27,1.3-.74,1.77-.48.47-1.12.73-1.79.73s-1.32-.26-1.79-.73c-.48-.47-.74-1.11-.74-1.77s.27-1.3.74-1.77c.48-.47,1.12-.73,1.79-.73s1.32.27,1.79.74c.47.46.73,1.1.74,1.76h0Z" style="fill: #fff;"/>
    </g>
  </g>
  <g id="g" data-name="elektro">
    <g>
      <path d="m299.67,534.01h-11.35v5.22c2.65.16,5.48.21,8.09.21s5.42-.08,7.95-.39v3.1c-3.14.29-6.14.42-9.21.42-3.4,0-6.91-.13-10.29-.42v-18.63c3.51-.29,7.2-.42,10.72-.42,2.92,0,5.77.13,8.74.42v3.1c-2.61-.32-5.71-.39-8.32-.39s-5.18.05-7.68.18v5.25h11.35v2.35Z"/>
      <path d="m310.54,525.75v3.12c0,3.31.06,6.98.2,10.29,1.49.24,3.12.32,4.63.32s3.1-.08,4.61-.32c.1-.73.16-1.42.18-2.13h3.32c-.04,1.68-.16,3.23-.39,5.01-2.59.37-5.16.5-7.73.5s-5.14-.13-7.77-.5c-.24-4.28-.39-8.92-.39-13.18v-3.12h3.34Z"/>
      <path d="m338.79,535.12h-9.66v4.12c2.26.26,4.67.34,6.91.34s4.69-.08,6.87-.34v2.97c-2.77.24-5.4.34-8.11.34-2.98,0-6.03-.11-8.99-.34v-16.38c3.1-.24,6.32-.34,9.42-.34,2.55,0,5.04.11,7.64.34v2.97c-2.26-.26-4.97-.34-7.24-.34-2.14,0-4.38.08-6.5.32v4.15h9.66v2.19h0Z"/>
      <path d="m348.87,535.61v6.67h-3.32v-16.53h3.32v6.64c.9.05,1.98.05,3.18.05.96,0,2.04-.03,2.77-.08l5.87-6.61h3.85l-7.05,8.27,7.38,8.27h-3.87l-6.18-6.64c-.73-.05-1.81-.08-2.77-.08-1.2,0-2.28.02-3.18.04Z"/>
      <path d="m384.08,528.87c-3.85-.18-5.93-.26-7.48-.29v13.7h-3.32v-13.7c-1.57.03-3.63.11-7.48.29v-3.04c3.08-.24,6.11-.34,9.15-.34s6.07.11,9.13.34v3.04h0Z"/>
      <path d="m394.55,534.25c2.14,0,4.08,0,5.95-.13.1-.97.16-1.92.16-2.89s-.04-1.71-.14-2.65c-1.83-.18-3.55-.29-5.56-.29-1.81,0-3.63.03-5.42.21l-.02,13.78h-3.3v-16.53c2.92-.21,5.85-.26,8.76-.26,2.67,0,5.99.05,8.72.71.2,1.6.37,3.1.37,4.7,0,1.86-.06,3.8-.37,5.77-1.55.11-3.24.16-4.93.21l5.44,5.41h-4.18l-5.46-5.35h-.02l-1.08-1.08-1.14-1.13v-.47h2.22Z"/>
      <path d="m416.73,542.54c-3.08,0-6.18-.21-9.27-.63-.16-2.68-.27-5.22-.27-7.9s.1-5.2.27-7.9c3.1-.42,6.2-.63,9.27-.63s6.18.21,9.27.63c.16,2.7.24,5.22.24,7.9s-.08,5.22-.24,7.9c-3.1.42-6.2.63-9.27.63Zm-5.89-3.38c1.94.21,3.95.32,5.89.32s3.93-.11,5.87-.32c.12-1.76.2-3.38.2-5.14s-.08-3.38-.2-5.14c-1.94-.21-3.95-.31-5.87-.31s-3.95.11-5.89.31c-.12,1.76-.18,3.39-.18,5.14-.01,1.75.05,3.38.18,5.14Z"/>
      <path d="m429.59,534.35c-.22-1.42-.33-2.65-.33-4.04,0-1.52.1-2.73.33-4.25,2.81-.39,5.61-.58,8.36-.58s5.63.11,8.48.39v2.73c-2.24-.16-4.46-.34-7.11-.34-2.47,0-4.55.16-6.69.34-.06.58-.08,1.13-.08,1.73,0,.55.02,1.05.08,1.6,4.57.42,9.19.29,13.92,1.29.2,1.52.33,2.76.33,4.25,0,1.6-.1,2.91-.33,4.51-2.83.37-5.69.55-8.5.55s-5.65-.11-8.48-.39v-2.7c2.28.16,4.57.29,7.28.29,2.49,0,4.59-.11,6.62-.32.06-.6.1-1.26.1-1.94,0-.63-.02-1.26-.1-1.86-4.61-.39-9.18-.36-13.88-1.26Z"/>
      <path d="m462.89,535.12h-9.66v4.12c2.26.26,4.67.34,6.91.34s4.69-.08,6.87-.34v2.97c-2.77.24-5.4.34-8.11.34-2.98,0-6.03-.11-8.99-.34v-16.38c3.1-.24,6.32-.34,9.42-.34,2.55,0,5.04.11,7.64.34v2.97c-2.26-.26-4.97-.34-7.24-.34-2.14,0-4.38.08-6.5.32v4.15h9.66v2.19h0Z"/>
      <path d="m477.99,534.25c2.14,0,4.08,0,5.95-.13.1-.97.16-1.92.16-2.89s-.04-1.71-.14-2.65c-1.83-.18-3.55-.29-5.57-.29-1.81,0-3.63.03-5.42.21l-.02,13.78h-3.3v-16.53c2.92-.21,5.85-.26,8.77-.26,2.67,0,5.99.05,8.72.71.2,1.6.37,3.1.37,4.7,0,1.86-.06,3.8-.37,5.77-1.55.11-3.24.16-4.93.21l5.44,5.41h-4.18l-5.46-5.35h-.02l-1.08-1.08-1.14-1.13v-.47h2.22Z"/>
      <path d="m501.27,539.24l4.93-13.49h3.57l-5.85,16.45c-1.53.18-2.85.24-4.26.24s-2.75-.05-4.26-.24l-5.87-16.45h3.57l4.93,13.49c.47.05,1.04.11,1.63.11.57,0,1.14-.06,1.61-.11Z"/>
      <path d="m515.19,542.28h-3.32v-16.53h3.32v16.53Z"/>
      <path d="m533.29,539.16c.08-.94.14-1.73.16-2.65h3.43c-.02,1.78-.14,3.44-.33,5.25-2.98.55-5.91.79-8.85.79s-5.95-.24-8.93-.79c-.24-2.62-.37-5.09-.37-7.74s.12-5.12.37-7.74c2.98-.55,5.95-.79,8.93-.79s5.87.18,8.85.63c.18,1.86.31,3.57.35,5.38h-3.44c-.02-.89-.08-1.71-.16-2.63-1.79-.26-3.81-.31-5.59-.31s-3.87.05-5.69.31c-.12,1.76-.16,3.39-.16,5.14s.04,3.39.16,5.14c1.81.26,3.87.32,5.69.32,1.77,0,3.79-.05,5.58-.31Z"/>
      <path d="m552.92,535.12h-9.66v4.12c2.26.26,4.67.34,6.91.34s4.69-.08,6.87-.34v2.97c-2.77.24-5.4.34-8.11.34-2.98,0-6.03-.11-8.99-.34v-16.38c3.1-.24,6.32-.34,9.42-.34,2.55,0,5.04.11,7.64.34v2.97c-2.26-.26-4.97-.34-7.24-.34-2.14,0-4.38.08-6.5.32v4.15h9.66v2.19Z"/>
    </g>
    <g>
      <ellipse cx="420.53" cy="474.41" rx="39.61" ry="39.14" style="fill: #7a89a3; stroke: #000; stroke-miterlimit: 10; stroke-width: .5px;"/>
      <g>
        <path d="m419.14,458.76l-7.24,17.91,10.14-3.49-2.61,9.81-1.74-1.37.89,5.52,3.9-4.62-2.41.59,5.98-12.98-10.81,3.38,7.8-14.87-3.9.12Z" style="fill: #fff;"/>
        <path d="m420.25,441.18c-.55.09-1.03.43-1.29.9l-28.9,50.61c-.32.56-.32,1.27,0,1.83s.92.93,1.57.93h57.8c.65,0,1.24-.37,1.57-.93.32-.55.32-1.27,0-1.83l-28.9-50.61c-.38-.65-1.09-1.02-1.85-.9h0Zm.27,5.83l24.54,43.68h-49.11l24.57-43.68Z" style="fill: #fff;"/>
      </g>
    </g>
  </g>
  <g id="h" data-name="IT">
    <g>
      <circle cx="684.22" cy="529.35" r="34.24" style="fill: #7a89a3; stroke: #000; stroke-miterlimit: 10; stroke-width: .5px;"/>
      <g>
        <path d="m675.47,510.55c.22,0,.44-.16.44-.44v-2.74c0-.22-.16-.44-.44-.44-.22,0-.44.16-.44.44v2.74c.05.28.22.44.44.44Zm-.11-3.17s.05-.05.16-.05c.05,0,.11.05.11.11v2.74s-.05.11-.11.11c-.05,0-.11-.05-.11-.11v-2.79h-.05Z" style="fill: #fff;"/>
        <path d="m676.73,510.55c.22,0,.44-.16.44-.44v-2.74c0-.22-.16-.44-.44-.44-.22,0-.44.16-.44.44v2.74c0,.28.22.44.44.44Zm-.11-3.17s.05-.05.11-.05.11.05.11.11v2.74s-.05.11-.11.11c-.05,0-.11-.05-.11-.11v-2.8Z" style="fill: #fff;"/>
        <path d="m678.15,510.55c.22,0,.44-.16.44-.44v-2.74c0-.22-.16-.44-.44-.44-.22,0-.44.16-.44.44v2.74c0,.28.22.44.44.44Zm-.11-3.17s.05-.05.11-.05c.05,0,.11,0,.11.05v2.74s-.05.11-.11.11c-.05,0-.11-.05-.11-.11v-2.74Z" style="fill: #fff;"/>
        <path d="m679.57,510.55c.22,0,.44-.16.44-.44v-2.74c0-.22-.16-.44-.44-.44-.22,0-.44.16-.44.44v2.74c0,.28.17.44.44.44Zm-.11-3.17s.05-.05.11-.05.11.05.11.11v2.74s-.05.11-.11.11c-.05,0-.11-.05-.11-.11v-2.8Z" style="fill: #fff;"/>
        <path d="m680.94,510.55c.22,0,.44-.16.44-.44v-2.74c0-.22-.16-.44-.44-.44-.22,0-.44.16-.44.44v2.74c.06.28.22.44.44.44Zm-.11-3.17s.05-.05.16-.05c.05,0,.11.05.11.11v2.74s-.05.11-.11.11c-.05,0-.11-.05-.11-.11v-2.79h-.05Z" style="fill: #fff;"/>
        <path d="m682.36,510.55c.22,0,.44-.16.44-.44v-2.74c0-.22-.16-.44-.44-.44-.22,0-.44.16-.44.44v2.74c0,.28.22.44.44.44Zm-.11-3.17s.05-.05.11-.05c.05,0,.11.05.11.11v2.74s-.05.11-.11.11c-.05,0-.11-.05-.11-.11v-2.8Z" style="fill: #fff;"/>
        <path d="m683.62,510.55c.22,0,.44-.16.44-.44v-2.74c0-.22-.16-.44-.44-.44-.22,0-.44.16-.44.44v2.74c0,.28.22.44.44.44Zm-.11-3.17s.05-.05.11-.05c.05,0,.11,0,.11.05v2.74s-.05.11-.11.11c-.05,0-.11-.05-.11-.11v-2.74Z" style="fill: #fff;"/>
        <g>
          <path d="m683.89,535.67c.22,0,.38-.11.49-.33.6-1.31,2.79-6.73,2.79-8.7v-7c0-.38-.27-.66-.66-.77,0-.05.05-.16.05-.27v-11.38c0-.66-.55-1.15-1.2-1.15h-.22v-.05c0-.66-.55-1.15-1.2-1.15h-8.76c-.66,0-1.2.49-1.2,1.15v.05h-.22c-.66,0-1.2.49-1.2,1.15v11.66h-.11c-.44,0-.82.33-.82.77v7c0,1.97,2.57,7.44,3.28,8.7.11.16.27.27.49.27h8.48v.05Zm-10.44-28.45c0-.11.11-.22.27-.22h1.2v-.98c0-.11.11-.22.27-.22h8.7c.16,0,.27.11.27.22v.98h1.2c.16,0,.27.11.27.22v11.44c0,.11-.11.22-.27.22h-1.42v-7.33c0-.16-.11-.27-.27-.27s-.27.11-.27.27v7.28h-.82v-7.28c0-.16-.11-.27-.27-.27s-.27.11-.27.27v7.28h-.82v-7.28c0-.16-.11-.27-.27-.27s-.27.11-.27.27v7.28h-.82v-7.28c0-.16-.11-.27-.27-.27s-.27.11-.27.27v7.28h-.82v-7.28c0-.16-.11-.27-.27-.27s-.27.11-.27.27v7.28h-.82v-7.28c0-.16-.11-.27-.27-.27s-.27.11-.27.27v7.28h-.82v-7.28c0-.16-.11-.27-.27-.27s-.27.11-.27.27v7.28h-1.48c-.16,0-.27-.11-.27-.22l-.04-11.39Z" style="fill: #fff;"/>
          <path d="m684.17,537.09c0-.33-.27-.6-.6-.6h-7.66c-.33,0-.6.27-.6.6s.27.6.6.6h7.66c.32.01.6-.27.6-.6Z" style="fill: #fff;"/>
          <path d="m682.85,539.67c.33,0,.6-.27.6-.6s-.27-.6-.6-.6h-6.29c-.33,0-.6.27-.6.6s.27.6.6.6h6.29Z" style="fill: #fff;"/>
          <path d="m682.85,540.98c0-.33-.27-.6-.6-.6h-5.14c-.33,0-.6.27-.6.6s.27.6.6.6h5.14c.33.06.6-.22.6-.6Z" style="fill: #fff;"/>
          <path d="m717.66,526.92c-8.32,0-14.28,5.31-15.05,14.99-.49,6.13-4.6,11.33-10.29,11.38-5.69,0-10.29-4.87-10.29-10.83h-4.71c0,8.54,6.68,15.49,14.94,15.54h.1c8.21-.11,14.28-6.89,14.94-15.6.55-7.28,4.65-10.78,10.34-10.83.33,0,.6-1.04.6-2.35.02-1.32-.25-2.3-.58-2.3h0Z" style="fill: #fff;"/>
        </g>
      </g>
    </g>
    <g>
      <path d="m572.42,590.05h-3.03v-.02l-9.88-13.57c-.86-.05-1.52-.07-2.35-.07v13.66h-3.03v-16.53h.46c2.14,0,4.26.07,6.74.23l8.06,11.41v-11.64h3.03v16.53Z"/>
      <path d="m586.82,583.78h-8.45v3.6c1.98.23,4.08.3,6.04.3s4.1-.07,6.01-.3v2.59c-2.43.21-4.73.3-7.1.3-2.6,0-5.28-.09-7.86-.3v-14.33c2.71-.21,5.53-.3,8.24-.3,2.23,0,4.4.09,6.69.3v2.59c-1.98-.23-4.35-.3-6.33-.3-1.87,0-3.83.07-5.69.28v3.63h8.45v1.94Z"/>
      <path d="m607.56,578.31c-3.37-.16-5.19-.23-6.54-.25v11.98h-2.91v-11.98c-1.37.02-3.17.09-6.54.25v-2.66c2.69-.21,5.35-.3,8.01-.3s5.31.09,7.99.3v2.66h-.01Z"/>
      <path d="m623.85,578.2l-11.09,9.39c1.19.05,2.39.05,3.55.05,2.28,0,5.05,0,7.36-.23v2.53c-2.51.3-5.01.34-7.45.34s-4.99-.05-7.49-.34v-2.55l10.86-9.37c-1.12-.02-2.25-.02-3.3-.02-2.28,0-4.94,0-7.2.23v-2.53c2.44-.3,4.87-.34,7.31-.34s4.96.05,7.45.34v2.5h0Z"/>
      <path d="m636.07,578.2l-2.78,11.8c-.78.14-1.48.18-2.19.18-.89,0-1.75-.05-2.73-.18l-3.5-14.42h3l2.71,11.8s.2.07.32.07c.11,0,.27-.02.3-.07l2.71-11.69c.86-.14,1.59-.18,2.35-.18s1.52.05,2.39.18l2.69,11.69s.2.07.3.07c.12,0,.3-.02.34-.07l2.69-11.8h3l-3.5,14.42c-.98.14-1.85.18-2.73.18-.7,0-1.39-.05-2.18-.18l-2.8-11.8c-.07-.02-.12-.02-.21-.02-.06,0-.11,0-.18.02Z"/>
      <path d="m660.72,583.78h-8.45v3.6c1.98.23,4.08.3,6.04.3s4.1-.07,6.01-.3v2.59c-2.43.21-4.73.3-7.1.3-2.6,0-5.28-.09-7.86-.3v-14.33c2.71-.21,5.53-.3,8.24-.3,2.23,0,4.4.09,6.69.3v2.59c-1.98-.23-4.35-.3-6.33-.3-1.87,0-3.83.07-5.69.28v3.63h8.45v1.94Z"/>
      <path d="m673.93,583.02c1.87,0,3.57,0,5.21-.12.09-.85.14-1.68.14-2.52s-.04-1.49-.12-2.32c-1.6-.16-3.1-.25-4.87-.25-1.59,0-3.17.02-4.74.18l-.02,12.05h-2.89v-14.46c2.55-.18,5.12-.23,7.67-.23,2.34,0,5.24.05,7.63.62.18,1.4.32,2.71.32,4.11,0,1.63-.05,3.33-.32,5.05-1.35.09-2.83.14-4.31.18l4.76,4.73h-3.66l-4.78-4.68h-.02l-.94-.94-1-.99v-.41h1.94Z"/>
      <path d="m687.95,584.21v5.83h-2.91v-14.46h2.91v5.81c.78.05,1.73.05,2.78.05.84,0,1.78-.02,2.43-.07l5.14-5.79h3.37l-6.17,7.23,6.46,7.23h-3.39l-5.4-5.81c-.64-.05-1.59-.07-2.43-.07-1.06.01-2.01.03-2.79.05Z"/>
      <path d="m703.67,583.11c-.2-1.24-.29-2.32-.29-3.54,0-1.33.09-2.39.29-3.72,2.46-.35,4.9-.51,7.31-.51s4.92.09,7.42.34v2.39c-1.96-.14-3.91-.3-6.22-.3-2.16,0-3.98.14-5.85.3-.05.5-.07.99-.07,1.52,0,.48.02.92.07,1.4,3.99.37,8.04.25,12.18,1.13.18,1.33.29,2.41.29,3.72,0,1.4-.09,2.55-.29,3.95-2.48.32-4.98.48-7.44.48s-4.94-.09-7.42-.34v-2.36c2,.14,3.99.25,6.37.25,2.17,0,4.01-.09,5.79-.28.05-.53.09-1.1.09-1.7,0-.55-.02-1.1-.09-1.63-4.02-.34-8.02-.32-12.14-1.1Z"/>
      <path d="m732.81,583.78h-8.45v3.6c1.98.23,4.08.3,6.04.3s4.1-.07,6.01-.3v2.59c-2.43.21-4.73.3-7.1.3-2.6,0-5.28-.09-7.86-.3v-14.33c2.71-.21,5.53-.3,8.24-.3,2.23,0,4.4.09,6.69.3v2.59c-1.98-.23-4.35-.3-6.33-.3-1.87,0-3.83.07-5.69.28v3.63h8.45v1.94Z"/>
      <path d="m746.02,583.02c1.87,0,3.57,0,5.21-.12.09-.85.14-1.68.14-2.52s-.04-1.49-.12-2.32c-1.6-.16-3.1-.25-4.87-.25-1.59,0-3.17.02-4.74.18l-.02,12.05h-2.89v-14.46c2.55-.18,5.12-.23,7.67-.23,2.34,0,5.24.05,7.63.62.18,1.4.32,2.71.32,4.11,0,1.63-.05,3.33-.32,5.05-1.35.09-2.83.14-4.31.18l4.76,4.73h-3.66l-4.78-4.68h-.02l-.94-.94-1-.99v-.41h1.94Z"/>
      <path d="m766.38,587.38l4.31-11.8h3.12l-5.12,14.39c-1.34.16-2.5.21-3.73.21s-2.41-.05-3.73-.21l-5.14-14.39h3.12l4.32,11.8c.41.05.91.09,1.43.09.51,0,1.01-.04,1.42-.09Z"/>
      <path d="m778.56,590.05h-2.91v-14.46h2.91v14.46Z"/>
      <path d="m794.39,587.31c.07-.83.12-1.52.14-2.32h3c-.02,1.56-.12,3.01-.29,4.59-2.6.48-5.17.69-7.74.69s-5.21-.21-7.81-.69c-.21-2.3-.32-4.45-.32-6.77s.11-4.48.32-6.77c2.6-.48,5.21-.69,7.81-.69s5.14.16,7.74.55c.16,1.63.27,3.12.3,4.71h-3.01c-.02-.78-.07-1.49-.14-2.3-1.57-.23-3.33-.27-4.89-.27s-3.39.05-4.97.27c-.11,1.54-.14,2.96-.14,4.5s.04,2.96.14,4.5c1.59.23,3.39.28,4.97.28s3.32-.05,4.89-.28Z"/>
      <path d="m811.56,583.78h-8.45v3.6c1.98.23,4.08.3,6.04.3s4.1-.07,6.01-.3v2.59c-2.43.21-4.73.3-7.1.3-2.6,0-5.28-.09-7.86-.3v-14.33c2.71-.21,5.53-.3,8.24-.3,2.23,0,4.4.09,6.69.3v2.59c-1.98-.23-4.35-.3-6.33-.3-1.87,0-3.83.07-5.69.28v3.63h8.45v1.94Z"/>
    </g>
  </g>
  <g id="i" data-name="Titel">
    <path d="m61.06,393.4v-91.82h19.7v91.82h-19.7Zm74.02,0l-45.09-38.9c-3.41-2.9-4.04-5.31-4.04-8.08,0-3.28,1.14-5.81,4.93-8.97l42.44-35.87h29.43l-54.56,44.96,56.33,46.86h-29.44Z"/>
    <path d="m201.76,393.4c-26.14,0-45.34-20.21-45.34-46.86s19.2-44.96,45.34-44.96h22.73c27.03,0,45.72,18.31,45.72,44.96s-19.2,46.86-45.72,46.86h-22.73Zm22.73-19.71c15.28,0,26.02-10.99,26.02-26.14s-10.74-26.27-26.02-26.27h-22.73c-14.78,0-25.64,10.99-25.64,26.27s10.74,26.14,25.64,26.14h22.73Zm-22.98-80.7c-4.42,0-7.7-2.53-7.7-6.69s3.28-6.57,7.7-6.57c4.17,0,7.45,2.53,7.45,6.57,0,4.16-3.29,6.69-7.45,6.69Zm23.36,0c-4.17,0-7.58-2.53-7.58-6.69s3.41-6.57,7.58-6.57,7.58,2.53,7.58,6.57-3.28,6.69-7.58,6.69Z"/>
    <path d="m300.27,332.27v61.13h-18.69v-81.34c0-7.2,3.79-11.62,9.85-11.62,2.9,0,5.18,1.01,7.96,3.66l60.12,57.72v-61.13h18.82v82.22c0,7.33-4.04,11.75-9.85,11.75-3.03,0-5.43-1.14-8.08-3.79l-60.13-58.6Z"/>
    <path d="m393.47,393.4v-77.86h19.7v77.86h-19.7Z"/>
    <path d="m471.4,393.4c-26.14,0-45.34-20.21-45.34-46.86s19.2-44.96,45.34-44.96h50.65v19.7h-50.65c-14.78,0-25.64,10.99-25.64,26.27s10.74,26.14,25.64,26.14h36.63v-19.2h-38.77v-15.54h58.48v54.44h-56.34Z"/>
    <path d="m576.85,393.4v-19.7h61.51c7.7,0,12.5-3.54,12.5-9.73s-3.66-9.47-10.86-9.47h-41.05v-15.54h39.66c7.2,0,10.61-2.9,10.61-8.84s-4.17-8.97-12.12-8.97h-59.87v-19.58h61.13c18.44,0,30.69,8.08,30.69,24,0,11.11-5.3,16.55-10.48,18.95,6.95,2.9,12.5,10.1,12.5,19.7,0,18.19-12.38,29.18-30.44,29.18h-63.78Z"/>
    <path d="m691.53,393.4v-19.58h46.98c11.62,0,18.82-4.67,21.47-15.54h-51.53c-17.18,0-27.41-8.21-27.41-27.53,0-16.55,10.61-29.18,27.41-29.18h30.06c26.15,0,42.31,15.41,42.31,46.86s-16.17,44.96-42.31,44.96h-46.98Zm20.21-50.51h49.13c-1.14-15.16-8.71-21.47-22.36-21.47h-26.78c-6.57,0-10.61,3.41-10.61,10.86.01,7.07,3.92,10.61,10.62,10.61Z"/>
    <polygon points="403.27 284.21 391.77 310.51 395.65 306.4 422.7 277.67 408.05 278.02 416.03 253.21 390.47 284.21 403.27 284.21" style="fill: #e8ac5e;"/>
  </g>
</svg>